# xmcd CD database file
#
# Track frame offsets:
#	150
#	12675
#	26606
#	38410
#	49979
#	60321
#	71720
#	82732
#	96163
#	108733
#
# Disc length: 1631 seconds
#
# Revision: 0
# Processed by: cddbd v1.5.1PL0 Copyright (c) Steve Scherf et al.
# Submitted via: CDex 1.40Release
#
DISCID=7c065d0a
DTITLE=VARIED - NUMBER 1 COUNTRY HITS
DYEAR=2003
DGENRE=Country
TTITLE0=A SATISFIED MIND
TTITLE1=I CHEATED ME RIGHT OUT OF YOU
TTITLE2=WHOLE LOTTA SHAKIN' GOIN' ON
TTITLE3=OH LONESOME ME
TTITLE4=HELLO WALLS
TTITLE5=HEARTBREAK, U.S.A.
TTITLE6=MISERY LOVES COMPANY
TTITLE7=ALMOST PERSUADED
TTITLE8=ALL THE TIME
TTITLE9=YOU ARE MY TREASURE
EXTD=YEAR: 2003 ID3G: 2
EXTT0=
EXTT1=
EXTT2=
EXTT3=
EXTT4=
EXTT5=
EXTT6=
EXTT7=
EXTT8=
EXTT9=
PLAYORDER=
